<?xml version="1.0" encoding="UTF-8"?>
<!DOCTYPE svg PUBLIC "-//W3C//DTD SVG 1.1//EN" "http://www.w3.org/Graphics/SVG/1.1/DTD/svg11.dtd">
<svg xmlns="http://www.w3.org/2000/svg" version="1.1" width="512px" height="512px" style="shape-rendering:geometricPrecision; text-rendering:geometricPrecision; image-rendering:optimizeQuality; fill-rule:evenodd; clip-rule:evenodd" xmlns:xlink="http://www.w3.org/1999/xlink">
<g><path style="opacity:0.952" fill="#030302" d="M 91.5,-0.5 C 94.5,-0.5 97.5,-0.5 100.5,-0.5C 107.214,3.19966 112.381,8.53299 116,15.5C 133.217,51.1466 146.884,88.1466 157,126.5C 165.625,156.999 173.625,187.666 181,218.5C 187.642,215.096 194.476,212.096 201.5,209.5C 209.569,192.931 222.236,181.431 239.5,175C 261.93,169.232 281.097,174.732 297,191.5C 301.751,197.086 305.918,203.086 309.5,209.5C 316.524,212.096 323.358,215.096 330,218.5C 342.498,164.34 357.832,111.006 376,58.5C 382.282,39.6032 390.949,21.9365 402,5.5C 404.736,3.24806 407.569,1.24806 410.5,-0.5C 413.5,-0.5 416.5,-0.5 419.5,-0.5C 425.843,4.94251 429.676,11.9425 431,20.5C 432.892,29.0799 434.226,37.7466 435,46.5C 437.992,87.4717 438.659,128.472 437,169.5C 430.126,207.578 416.292,242.912 395.5,275.5C 424.575,316.039 433.741,360.706 423,409.5C 411.721,444.448 389.888,470.614 357.5,488C 332.245,501.033 305.579,508.867 277.5,511.5C 262.833,511.5 248.167,511.5 233.5,511.5C 198.743,508.308 166.743,497.142 137.5,478C 91.3983,442.38 74.565,395.88 87,338.5C 92.1809,315.477 101.681,294.477 115.5,275.5C 94.7076,242.912 80.8743,207.578 74,169.5C 72.3188,128.471 72.9854,87.4712 76,46.5C 76.6338,31.31 80.3005,16.9767 87,3.5C 88.3968,1.92975 89.8968,0.596413 91.5,-0.5 Z"/></g>
<g><path style="opacity:1" fill="#b9a58d" d="M 157.5,233.5 C 144.088,177.952 128.255,122.952 110,68.5C 107.943,62.7192 105.61,57.0526 103,51.5C 100.247,75.3899 99.0804,99.3899 99.5,123.5C 97.2764,155.439 102.443,186.106 115,215.5C 120.748,228.666 127.248,241.333 134.5,253.5C 129.865,258.1 125.698,263.1 122,268.5C 121.107,269.711 120.274,269.711 119.5,268.5C 102.009,239.53 89.5088,208.53 82,175.5C 80.388,140.193 80.0547,104.86 81,69.5C 81.7681,55.5727 83.2681,41.7393 85.5,28C 86.7998,20.4276 89.4664,13.4276 93.5,7C 95.9712,6.2937 98.3046,6.62703 100.5,8C 108.556,16.6031 114.722,26.4365 119,37.5C 141.831,97.4948 160.331,158.828 174.5,221.5C 169.055,225.731 163.388,229.731 157.5,233.5 Z"/></g>
<g><path style="opacity:1" fill="#b9a58c" d="M 376.5,253.5 C 393.065,226.649 404.231,197.649 410,166.5C 410.667,133.833 410.667,101.167 410,68.5C 409.633,62.7964 408.966,57.1298 408,51.5C 398.279,74.9967 389.945,98.9967 383,123.5C 372.528,160.057 362.695,196.724 353.5,233.5C 348.651,230.162 343.651,226.996 338.5,224C 337.426,223.261 336.759,222.261 336.5,221C 350.629,159.28 368.796,98.7803 391,39.5C 395.608,27.7755 402.108,17.2755 410.5,8C 415.864,5.07618 419.364,6.57618 421,12.5C 426.485,31.0806 429.485,50.0806 430,69.5C 442.338,141.649 429.005,208.315 390,269.5C 385.73,263.95 381.23,258.617 376.5,253.5 Z"/></g>
<g><path style="opacity:1" fill="#271302" d="M 157.5,233.5 C 149.267,239.391 141.601,246.058 134.5,253.5C 127.248,241.333 120.748,228.666 115,215.5C 102.443,186.106 97.2764,155.439 99.5,123.5C 99.0804,99.3899 100.247,75.3899 103,51.5C 105.61,57.0526 107.943,62.7192 110,68.5C 128.255,122.952 144.088,177.952 157.5,233.5 Z"/></g>
<g><path style="opacity:1" fill="#261301" d="M 376.5,253.5 C 369.399,246.058 361.733,239.391 353.5,233.5C 362.695,196.724 372.528,160.057 383,123.5C 389.945,98.9967 398.279,74.9967 408,51.5C 408.966,57.1298 409.633,62.7964 410,68.5C 410.667,101.167 410.667,133.833 410,166.5C 404.231,197.649 393.065,226.649 376.5,253.5 Z"/></g>
<g><path style="opacity:1" fill="#bba78e" d="M 226.5,209.5 C 228.429,209.231 230.095,209.731 231.5,211C 214.424,217.91 202.09,229.743 194.5,246.5C 195,246.833 195.5,247.167 196,247.5C 206.043,244.341 216.21,243.841 226.5,246C 215.167,254.667 205.167,264.667 196.5,276C 207.33,272.504 218.33,269.171 229.5,266C 245.1,261.88 260.767,261.547 276.5,265C 289.324,268.501 301.99,272.168 314.5,276C 305.833,264.667 295.833,254.667 284.5,246C 294.565,243.92 304.565,244.42 314.5,247.5C 315.167,247.167 315.833,246.833 316.5,246.5C 308.885,229.717 296.551,217.884 279.5,211C 280.108,210.13 280.941,209.63 282,209.5C 343.733,224.235 386.733,260.902 411,319.5C 423.608,353.538 423.608,387.538 411,421.5C 395.117,454.049 370.284,476.882 336.5,490C 325.799,494.423 314.799,497.423 303.5,499C 334.157,483.193 347.657,458.026 344,423.5C 334.165,380.664 307.665,355.164 264.5,347C 221.841,346.082 191.341,364.915 173,403.5C 162.419,429.464 164.753,454.13 180,477.5C 188.479,487.315 198.645,494.815 210.5,500C 165.785,493.075 130.952,470.909 106,433.5C 89.5243,402.007 85.8576,369.007 95,334.5C 116.044,268.618 159.877,226.951 226.5,209.5 Z"/></g>
<g><path style="opacity:1" fill="#141212" d="M 226.5,328.5 C 225.662,328.842 225.328,329.508 225.5,330.5C 218.221,343.46 208.221,345.96 195.5,338C 187.201,328.003 187.534,318.336 196.5,309C 207.955,302.792 217.455,304.958 225,315.5C 226.367,319.7 226.867,324.033 226.5,328.5 Z"/></g>
<g><path style="opacity:1" fill="#4c1716" d="M 203.5,307.5 C 220.923,307.712 227.089,316.046 222,332.5C 212.761,343.145 203.428,343.145 194,332.5C 189.399,321.13 192.565,312.797 203.5,307.5 Z"/></g>
<g><path style="opacity:1" fill="#070404" d="M 204.5,310.5 C 218.742,311.217 223.575,318.217 219,331.5C 213.146,337.077 206.646,337.91 199.5,334C 192.848,324.239 194.515,316.405 204.5,310.5 Z"/></g>
<g><path style="opacity:1" fill="#f6f6f5" d="M 226.5,328.5 C 226.867,324.033 226.367,319.7 225,315.5C 217.455,304.958 207.955,302.792 196.5,309C 187.534,318.336 187.201,328.003 195.5,338C 208.221,345.96 218.221,343.46 225.5,330.5C 226.043,330.56 226.376,330.893 226.5,331.5C 219.694,345.411 209.027,350.244 194.5,346C 186.983,339.12 184.483,330.62 187,320.5C 193.612,303.104 205.445,297.604 222.5,304C 228.659,311.585 230.159,320.085 227,329.5C 226.601,329.272 226.435,328.938 226.5,328.5 Z"/></g>
<g><path style="opacity:1" fill="#f3f3f3" d="M 208.5,313.5 C 215.632,313.789 217.298,316.956 213.5,323C 205.03,323.531 203.364,320.364 208.5,313.5 Z"/></g>
<g><path style="opacity:1" fill="#f7f6f5" d="M 293.5,300.5 C 316.153,301.084 326.319,312.751 324,335.5C 318.517,347.439 309.684,350.939 297.5,346C 282.699,335.957 278.866,322.79 286,306.5C 288.114,303.879 290.614,301.879 293.5,300.5 Z"/></g>
<g><path style="opacity:1" fill="#141212" d="M 296.5,305.5 C 315.518,304.342 323.351,313.009 320,331.5C 312.886,342.655 303.386,345.155 291.5,339C 283.743,330.986 282.576,322.153 288,312.5C 290.628,309.79 293.461,307.456 296.5,305.5 Z"/></g>
<g><path style="opacity:1" fill="#4c1716" d="M 298.5,307.5 C 314.4,307.331 320.9,314.997 318,330.5C 310.979,341.131 302.145,342.964 291.5,336C 283.125,323.789 285.458,314.289 298.5,307.5 Z"/></g>
<g><path style="opacity:1" fill="#070404" d="M 299.5,310.5 C 311.714,310.542 316.881,316.542 315,328.5C 311.345,335.738 305.512,338.238 297.5,336C 286.367,326.62 287.033,318.12 299.5,310.5 Z"/></g>
<g><path style="opacity:1" fill="#f3f3f3" d="M 298.5,313.5 C 305.297,314.107 306.964,317.274 303.5,323C 297,324.5 294.5,322 296,315.5C 296.995,314.934 297.828,314.267 298.5,313.5 Z"/></g>
<g><path style="opacity:1" fill="#57432a" d="M 244.5,353.5 C 286.299,352.145 315.799,370.478 333,408.5C 346.083,457.49 327.916,487.99 278.5,500C 249.377,506.041 222.377,501.041 197.5,485C 177.45,468.86 169.617,448.027 174,422.5C 183.905,385.427 207.405,362.427 244.5,353.5 Z"/></g>
<g><path style="opacity:1" fill="#030201" d="M 213.5,382.5 C 224.21,382.71 232.377,387.376 238,396.5C 242.183,402.538 245.516,408.872 248,415.5C 240.843,406.666 231.843,400.666 221,397.5C 215.081,398.408 212.747,401.742 214,407.5C 214.806,410.446 216.139,413.112 218,415.5C 223.546,421.713 229.712,427.213 236.5,432C 224.45,429.478 213.45,424.478 203.5,417C 192.38,406.341 193.047,396.341 205.5,387C 208.099,385.205 210.766,383.705 213.5,382.5 Z"/></g>
<g><path style="opacity:1" fill="#030201" d="M 289.5,382.5 C 301.704,382.524 310.204,388.191 315,399.5C 315.098,408.432 311.265,415.266 303.5,420C 294.781,425.7 285.448,429.7 275.5,432C 282.721,426.112 289.221,419.612 295,412.5C 299.827,400.659 295.994,396.159 283.5,399C 275.844,403.42 269.011,408.92 263,415.5C 267.577,401.089 276.41,390.089 289.5,382.5 Z"/></g>
<g><path style="opacity:1" fill="#0e0c0a" d="M 219.5,442.5 C 243.5,442.5 267.5,442.5 291.5,442.5C 291.5,450.5 291.5,458.5 291.5,466.5C 287.167,466.5 282.833,466.5 278.5,466.5C 278.5,471.167 278.5,475.833 278.5,480.5C 263.167,480.5 247.833,480.5 232.5,480.5C 232.5,475.833 232.5,471.167 232.5,466.5C 228.167,466.5 223.833,466.5 219.5,466.5C 219.5,458.5 219.5,450.5 219.5,442.5 Z"/></g>
<g><path style="opacity:1" fill="#5b5b5b" d="M 222.5,445.5 C 222.5,451.5 222.5,457.5 222.5,463.5C 225.833,463.5 229.167,463.5 232.5,463.5C 229.038,464.482 225.371,464.815 221.5,464.5C 221.177,457.978 221.51,451.645 222.5,445.5 Z"/></g>
<g><path style="opacity:1" fill="#e4e4e4" d="M 222.5,445.5 C 225.833,445.5 229.167,445.5 232.5,445.5C 232.5,451.5 232.5,457.5 232.5,463.5C 229.167,463.5 225.833,463.5 222.5,463.5C 222.5,457.5 222.5,451.5 222.5,445.5 Z"/></g>
<g><path style="opacity:1" fill="#e4e4e4" d="M 235.5,445.5 C 241.5,445.5 247.5,445.5 253.5,445.5C 253.5,456.167 253.5,466.833 253.5,477.5C 247.5,477.5 241.5,477.5 235.5,477.5C 235.5,466.833 235.5,456.167 235.5,445.5 Z"/></g>
<g><path style="opacity:1" fill="#dfdfdf" d="M 256.5,445.5 C 262.833,445.5 269.167,445.5 275.5,445.5C 275.5,456.167 275.5,466.833 275.5,477.5C 269.167,477.5 262.833,477.5 256.5,477.5C 256.5,466.833 256.5,456.167 256.5,445.5 Z"/></g>
<g><path style="opacity:1" fill="#e4e4e4" d="M 288.5,445.5 C 288.5,451.5 288.5,457.5 288.5,463.5C 285.167,463.5 281.833,463.5 278.5,463.5C 278.5,457.5 278.5,451.5 278.5,445.5C 281.833,445.5 285.167,445.5 288.5,445.5 Z"/></g>
<g><path style="opacity:1" fill="#5b5b5b" d="M 288.5,445.5 C 289.49,451.645 289.823,457.978 289.5,464.5C 285.629,464.815 281.962,464.482 278.5,463.5C 281.833,463.5 285.167,463.5 288.5,463.5C 288.5,457.5 288.5,451.5 288.5,445.5 Z"/></g>
</svg>
